# xmcd
#
# Track frame offsets: 
#        150
#        15293
#        28194
#        41147
#        51500
#        63231
#        76964
#        93791
#        109578
#        130643
#        139878
#        162607
#        183412
#
# Disc length: 2743 seconds
#
# Revision: 0
# Processed by: cddbd v1.5.2PL0 Copyright (c) Steve Scherf et al.
# Submitted via: ExactAudioCopy v0.95a5
#
DISCID=a80ab50d
DTITLE=Various Artist - #1 R&B Hits [CD2)
DYEAR=2008
DGENRE=R&B
TTITLE0=Mary Wells - My Guy
TTITLE1=The Miracles - Shop Around
TTITLE2=Percy Sledge - When A Man Loves A Woman
TTITLE3=James Brown - Papa's Got A Brand New Bag (Live)
TTITLE4=Sam and Dave - Hold On I'm Comin'
TTITLE5=Aaron Neville - Tell It Like It Is
TTITLE6=The Spinners - The Rubberband Man
TTITLE7=Harold Melvin and The Blue Notes - Wake-Up Everybody
TTITLE8=Teddy Perndergrass - Close The Door
TTITLE9=Gladys Knight and The Pips - Every Beat Of My Heart
TTITLE10=Kool and The Gang - Hollywood Swinging (Live)
TTITLE11=The Spinners - Could It Be I'm Falling In Love (Live)
TTITLE12=Dionne Warwick - That's What Friends Are For (Live)
EXTD=
EXTT0=
EXTT1=
EXTT2=
EXTT3=
EXTT4=
EXTT5=
EXTT6=
EXTT7=
EXTT8=
EXTT9=
EXTT10=
EXTT11=
EXTT12=
PLAYORDER=
